HIERARCHY
ROOT Hips
{
	OFFSET 0.855459 87.304039 2.097940
	CHANNELS 6 Xposition Yposition Zposition Zrotation Yrotation Xrotation 
	JOINT Spine
	{
		OFFSET 0.000000 8.814246 -2.080107
		CHANNELS 3 Zrotation Yrotation Xrotation
		JOINT Spine1
		{
			OFFSET 0.000000 8.844141 0.000000
			CHANNELS 3 Zrotation Yrotation Xrotation
			JOINT Spine2
			{
				OFFSET -0.000000 11.682268 0.000000
				CHANNELS 3 Zrotation Yrotation Xrotation
				JOINT Spine3
				{
					OFFSET 0.000000 11.746700 0.000000
					CHANNELS 3 Zrotation Yrotation Xrotation
					JOINT Neck
					{
						OFFSET -0.000000 17.658264 -0.000000
						CHANNELS 3 Zrotation Yrotation Xrotation
						JOINT Neck1
						{
							OFFSET 0.000000 5.101515 0.000000
							CHANNELS 3 Zrotation Yrotation Xrotation
							JOINT Head
							{
								OFFSET 0.000000 5.101515 -0.000000
								CHANNELS 3 Zrotation Yrotation Xrotation
								JOINT HeadEnd
								{
									OFFSET 0.000000 11.655085 0.000000
									CHANNELS 3 Zrotation Yrotation Xrotation
									End Site
									{
										OFFSET 0.000000 0.000000 0.000000
									}
								}
							}
						}
					}
					JOINT RightShoulder
					{
						OFFSET -2.625389 11.175210 -0.000000
						CHANNELS 3 Zrotation Yrotation Xrotation
						JOINT RightArm
						{
							OFFSET -0.000000 10.434715 0.000000
							CHANNELS 3 Zrotation Yrotation Xrotation
							JOINT RightForeArm
							{
								OFFSET -0.000000 29.628420 -0.000000
								CHANNELS 3 Zrotation Yrotation Xrotation
								JOINT RightHand
								{
									OFFSET -0.000000 22.857611 0.000000
									CHANNELS 3 Zrotation Yrotation Xrotation
									JOINT RightHandThumb1
									{
										OFFSET -2.867323 3.959563 2.944291
										CHANNELS 3 Zrotation Yrotation Xrotation
										JOINT RightHandThumb2
										{
											OFFSET -0.000000 3.350399 0.000000
											CHANNELS 3 Zrotation Yrotation Xrotation
											JOINT RightHandThumb3
											{
												OFFSET 0.000000 3.756509 0.000000
												CHANNELS 3 Zrotation Yrotation Xrotation
												JOINT RightHandThumb4
												{
													OFFSET 0.000000 3.147345 0.000000
													CHANNELS 3 Zrotation Yrotation Xrotation
													End Site
													{
														OFFSET 0.000000 0.000000 0.000000
													}
												}
											}
										}
									}
									JOINT RightHandIndex1
									{
										OFFSET -0.086752 10.030893 2.345280
										CHANNELS 3 Zrotation Yrotation Xrotation
										JOINT RightHandIndex2
										{
											OFFSET -0.000000 4.061090 -0.000000
											CHANNELS 3 Zrotation Yrotation Xrotation
											JOINT RightHandIndex3
											{
												OFFSET 0.000000 3.248873 0.000000
												CHANNELS 3 Zrotation Yrotation Xrotation
												JOINT RightHandIndex4
												{
													OFFSET -0.000000 2.639709 -0.000000
													CHANNELS 3 Zrotation Yrotation Xrotation
													End Site
													{
														OFFSET 0.000000 0.000000 0.000000
													}
												}
											}
										}
									}
									JOINT RightHandMiddle1
									{
										OFFSET 0.104102 9.502952 0.006768
										CHANNELS 3 Zrotation Yrotation Xrotation
										JOINT RightHandMiddle2
										{
											OFFSET -0.000000 4.568727 0.000000
											CHANNELS 3 Zrotation Yrotation Xrotation
											JOINT RightHandMiddle3
											{
												OFFSET 0.000000 3.654981 0.000000
												CHANNELS 3 Zrotation Yrotation Xrotation
												JOINT RightHandMiddle4
												{
													OFFSET 0.000000 2.741236 0.000000
													CHANNELS 3 Zrotation Yrotation Xrotation
													End Site
													{
														OFFSET 0.000000 0.000000 0.000000
													}
												}
											}
										}
									}
									JOINT RightHandRing1
									{
										OFFSET 0.086752 8.921708 -2.267442
										CHANNELS 3 Zrotation Yrotation Xrotation
										JOINT RightHandRing2
										{
											OFFSET 0.000000 4.061090 0.000000
											CHANNELS 3 Zrotation Yrotation Xrotation
											JOINT RightHandRing3
											{
												OFFSET -0.000000 3.654981 -0.000000
												CHANNELS 3 Zrotation Yrotation Xrotation
												JOINT RightHandRing4
												{
													OFFSET -0.000000 2.741236 0.000000
													CHANNELS 3 Zrotation Yrotation Xrotation
													End Site
													{
														OFFSET 0.000000 0.000000 0.000000
													}
												}
											}
										}
									}
									JOINT RightHandPinky1
									{
										OFFSET -0.173504 7.976997 -4.467199
										CHANNELS 3 Zrotation Yrotation Xrotation
										JOINT RightHandPinky2
										{
											OFFSET 0.000000 3.350399 0.000000
											CHANNELS 3 Zrotation Yrotation Xrotation
											JOINT RightHandPinky3
											{
												OFFSET -0.000000 2.842763 -0.000000
												CHANNELS 3 Zrotation Yrotation Xrotation
												JOINT RightHandPinky4
												{
													OFFSET -0.000000 2.639709 -0.000000
													CHANNELS 3 Zrotation Yrotation Xrotation
													End Site
													{
														OFFSET 0.000000 0.000000 0.000000
													}
												}
											}
										}
									}
									JOINT RightForeArmEnd
									{
										OFFSET 0.000000 0.000000 0.000000
										CHANNELS 3 Zrotation Yrotation Xrotation
										End Site
										{
											OFFSET 0.000000 0.000000 0.000000
										}
									}
								}
								JOINT RightArmEnd
								{
									OFFSET 0.000000 0.000000 0.000000
									CHANNELS 3 Zrotation Yrotation Xrotation
									End Site
									{
										OFFSET 0.000000 0.000000 0.000000
									}
								}
							}
						}
					}
					JOINT LeftShoulder
					{
						OFFSET 2.625389 11.175210 0.000000
						CHANNELS 3 Zrotation Yrotation Xrotation
						JOINT LeftArm
						{
							OFFSET 0.000000 10.813635 0.000000
							CHANNELS 3 Zrotation Yrotation Xrotation
							JOINT LeftForeArm
							{
								OFFSET 0.000000 28.724781 -0.000000
								CHANNELS 3 Zrotation Yrotation Xrotation
								JOINT LeftHand
								{
									OFFSET 0.644384 25.716167 -0.328871
									CHANNELS 3 Zrotation Yrotation Xrotation
									JOINT LeftHandThumb1
									{
										OFFSET 2.867323 3.959563 2.944291
										CHANNELS 3 Zrotation Yrotation Xrotation
										JOINT LeftHandThumb2
										{
											OFFSET -0.000000 3.350399 0.000000
											CHANNELS 3 Zrotation Yrotation Xrotation
											JOINT LeftHandThumb3
											{
												OFFSET 0.000000 3.756509 -0.000000
												CHANNELS 3 Zrotation Yrotation Xrotation
												JOINT LeftHandThumb4
												{
													OFFSET -0.000000 3.100000 0.000000
													CHANNELS 3 Zrotation Yrotation Xrotation
													End Site
													{
														OFFSET 0.000000 0.000000 0.000000
													}
												}
											}
										}
									}
									JOINT LeftHandIndex1
									{
										OFFSET 0.086752 10.030893 2.345280
										CHANNELS 3 Zrotation Yrotation Xrotation
										JOINT LeftHandIndex2
										{
											OFFSET -0.000000 4.061090 0.000000
											CHANNELS 3 Zrotation Yrotation Xrotation
											JOINT LeftHandIndex3
											{
												OFFSET 0.000000 3.248873 -0.000000
												CHANNELS 3 Zrotation Yrotation Xrotation
												JOINT LeftHandIndex4
												{
													OFFSET -0.000000 2.639709 0.000000
													CHANNELS 3 Zrotation Yrotation Xrotation
													End Site
													{
														OFFSET 0.000000 0.000000 0.000000
													}
												}
											}
										}
									}
									JOINT LeftHandMiddle1
									{
										OFFSET -0.104102 9.502952 0.006768
										CHANNELS 3 Zrotation Yrotation Xrotation
										JOINT LeftHandMiddle2
										{
											OFFSET -0.000000 4.568727 0.000000
											CHANNELS 3 Zrotation Yrotation Xrotation
											JOINT LeftHandMiddle3
											{
												OFFSET 0.000000 3.654981 -0.000000
												CHANNELS 3 Zrotation Yrotation Xrotation
												JOINT LeftHandMiddle4
												{
													OFFSET -0.000000 2.741236 0.000000
													CHANNELS 3 Zrotation Yrotation Xrotation
													End Site
													{
														OFFSET 0.000000 0.000000 0.000000
													}
												}
											}
										}
									}
									JOINT LeftHandRing1
									{
										OFFSET -0.086752 8.921708 -2.267442
										CHANNELS 3 Zrotation Yrotation Xrotation
										JOINT LeftHandRing2
										{
											OFFSET -0.000000 4.061090 0.000000
											CHANNELS 3 Zrotation Yrotation Xrotation
											JOINT LeftHandRing3
											{
												OFFSET -0.000000 3.654981 0.000000
												CHANNELS 3 Zrotation Yrotation Xrotation
												JOINT LeftHandRing4
												{
													OFFSET 0.000000 2.741236 -0.000000
													CHANNELS 3 Zrotation Yrotation Xrotation
													End Site
													{
														OFFSET 0.000000 0.000000 0.000000
													}
												}
											}
										}
									}
									JOINT LeftHandPinky1
									{
										OFFSET 0.173504 7.976997 -4.467199
										CHANNELS 3 Zrotation Yrotation Xrotation
										JOINT LeftHandPinky2
										{
											OFFSET 0.000000 3.350399 -0.000000
											CHANNELS 3 Zrotation Yrotation Xrotation
											JOINT LeftHandPinky3
											{
												OFFSET 0.000000 2.842763 -0.000000
												CHANNELS 3 Zrotation Yrotation Xrotation
												JOINT LeftHandPinky4
												{
													OFFSET -0.000000 2.639709 0.000000
													CHANNELS 3 Zrotation Yrotation Xrotation
													End Site
													{
														OFFSET 0.000000 0.000000 0.000000
													}
												}
											}
										}
									}
									JOINT LeftForeArmEnd
									{
										OFFSET 0.000000 0.000000 0.000000
										CHANNELS 3 Zrotation Yrotation Xrotation
										End Site
										{
											OFFSET 0.000000 0.000000 0.000000
										}
									}
								}
								JOINT LeftArmEnd
								{
									OFFSET 0.000000 0.000000 0.000000
									CHANNELS 3 Zrotation Yrotation Xrotation
									End Site
									{
										OFFSET 0.000000 0.000000 0.000000
									}
								}
							}
						}
					}
				}
			}
		}
	}
	JOINT RightUpLeg
	{
		OFFSET -11.289943 -0.000000 0.000000
		CHANNELS 3 Zrotation Yrotation Xrotation
		JOINT RightLeg
		{
			OFFSET 0.000000 -38.200325 -0.000000
			CHANNELS 3 Zrotation Yrotation Xrotation
			JOINT RightFoot
			{
				OFFSET -0.000000 -39.900856 -0.000000
				CHANNELS 3 Zrotation Yrotation Xrotation
				JOINT RightToeBase
				{
					OFFSET -0.000000 -0.000000 15.261641
					CHANNELS 3 Zrotation Yrotation Xrotation
					JOINT RightToeBaseEnd
					{
						OFFSET 0.000000 0.000000 7.370709
						CHANNELS 3 Zrotation Yrotation Xrotation
						End Site
						{
							OFFSET 0.000000 0.000000 0.000000
						}
					}
				}
				JOINT RightLegEnd
				{
					OFFSET 0.000000 0.000000 0.000000
					CHANNELS 3 Zrotation Yrotation Xrotation
					End Site
					{
						OFFSET 0.000000 0.000000 0.000000
					}
				}
			}
			JOINT RightUpLegEnd
			{
				OFFSET 0.000000 0.000000 0.000000
				CHANNELS 3 Zrotation Yrotation Xrotation
				End Site
				{
					OFFSET 0.000000 0.000000 0.000000
				}
			}
		}
	}
	JOINT LeftUpLeg
	{
		OFFSET 11.315661 -0.000000 0.000000
		CHANNELS 3 Zrotation Yrotation Xrotation
		JOINT LeftLeg
		{
			OFFSET 0.000000 -38.200325 -0.000000
			CHANNELS 3 Zrotation Yrotation Xrotation
			JOINT LeftFoot
			{
				OFFSET 0.000000 -39.900856 -0.000000
				CHANNELS 3 Zrotation Yrotation Xrotation
				JOINT LeftToeBase
				{
					OFFSET 0.000000 -0.000000 15.261641
					CHANNELS 3 Zrotation Yrotation Xrotation
					JOINT LeftToeBaseEnd
					{
						OFFSET 0.000000 -0.000000 7.539996
						CHANNELS 3 Zrotation Yrotation Xrotation
						End Site
						{
							OFFSET 0.000000 0.000000 0.000000
						}
					}
				}
				JOINT LeftLegEnd
				{
					OFFSET 0.000000 0.000000 0.000000
					CHANNELS 3 Zrotation Yrotation Xrotation
					End Site
					{
						OFFSET 0.000000 0.000000 0.000000
					}
				}
			}
			JOINT LeftUpLegEnd
			{
				OFFSET 0.000000 0.000000 0.000000
				CHANNELS 3 Zrotation Yrotation Xrotation
				End Site
				{
					OFFSET 0.000000 0.000000 0.000000
				}
			}
		}
	}
}
MOTION
Frames: 4
Frame Time: 0.016667
-8.325242 85.628311 8.126444 -6.111832 -13.306800 -12.890276 4.460001 -0.924590 7.469762 0.134620 -0.311766 3.668651 6.155951 -6.451432 11.681224 -1.409721 -1.150145 -0.748496 -0.042157 8.663703 15.490764 -3.699101 6.462734 -4.995192 -1.716731 3.563536 -26.330435 0.000000 0.000000 0.000000 92.694412 0.232835 6.092538 40.948650 10.461071 10.212863 4.093844 31.606583 72.449821 -14.210088 76.406158 -10.879958 10.438749 -1.838738 39.991962 -0.000002 0.000013 -25.278845 0.000018 0.000036 -17.411160 0.000000 0.000014 -0.000010 11.973616 0.082745 -2.636737 8.778403 -0.050503 -0.015960 8.855590 -0.039344 0.021417 -0.000030 0.000023 -0.000005 13.555451 0.035438 -3.802353 8.824693 -0.021817 0.006883 9.161860 -0.001965 0.015681 -0.000004 0.000057 -0.000020 15.546185 -0.026843 -5.557650 9.874954 0.073367 0.060008 9.957295 0.037528 0.057815 -0.000005 0.000053 -0.000004 15.927862 -0.098344 -8.552301 10.078948 0.160662 0.232467 10.016441 0.067694 0.225242 0.000465 0.000006 -0.000007 0.000000 0.000000 0.000000 0.000000 0.000000 0.000000 -93.491661 -1.248459 8.497192 -42.188042 -12.970605 25.475191 -7.439810 -32.188728 76.827263 -18.486372 -63.361320 11.967667 -9.362749 1.713560 40.443981 -0.000001 -0.000002 -23.505392 -0.000247 -0.000046 -16.069830 -0.001041 0.000011 -0.002869 -15.109865 -0.047138 -14.888271 -9.724253 -0.017076 0.161755 -9.639797 -0.004765 0.108716 0.000014 -0.000978 -0.000007 -16.904902 -0.008642 -14.229215 -10.574210 -0.017186 0.051280 -10.247862 0.003898 0.034011 -0.000703 -0.000013 0.000063 -22.488503 -0.020616 -10.872039 -13.918953 0.000985 -0.150487 -13.647105 -0.006844 -0.104762 0.003413 0.000015 -0.000014 -25.486069 -0.241449 -8.544256 -15.880433 0.020474 -0.527103 -15.680109 -0.015994 -0.332075 0.000327 0.000013 -0.000027 0.000000 0.000000 0.000000 0.000000 0.000000 0.000000 10.575901 -10.932880 13.723947 -0.017131 -0.096506 12.191508 -10.582409 -16.431910 16.208197 0.204932 -0.865011 -27.636545 0.000000 0.000000 0.000000 0.000000 0.000000 0.000000 0.000000 0.000000 0.000000 22.114502 7.340555 8.059341 0.574375 1.193658 27.081188 -8.452219 5.948746 14.054427 0.774934 1.142752 -29.099787 0.000000 0.000000 0.000000 0.000000 0.000000 0.000000 0.000000 0.000000 0.000000 
-8.356207 85.621910 8.130665 -6.124662 -13.440255 -12.920961 4.452687 -0.925013 7.503404 0.196885 -0.333003 3.677387 6.113774 -6.410066 11.720709 -1.410540 -1.149654 -0.799523 -0.062084 8.732790 15.401009 -3.727937 6.472629 -5.047173 -1.721581 3.578057 -26.313562 0.000000 0.000000 0.000000 92.722069 0.228442 6.139492 40.835106 10.208493 10.150931 4.101128 31.526392 72.767021 -13.838144 76.516106 -10.551933 10.447838 -1.841453 39.985241 -0.000001 0.000013 -25.309301 0.000018 0.000036 -17.427433 0.000000 0.000014 -0.000010 12.071765 0.082457 -2.648720 8.759403 -0.050240 -0.010136 8.840693 -0.038845 0.029141 -0.000030 0.000023 -0.000005 13.630520 0.035448 -3.838134 8.812943 -0.021558 0.009328 9.151345 -0.001835 0.017151 -0.000004 0.000062 -0.000020 15.654347 -0.027084 -5.608841 9.896837 0.072812 0.056493 9.972371 0.037650 0.054433 -0.000005 0.000035 -0.000004 16.103964 -0.095423 -8.611053 10.132805 0.156920 0.222544 10.060927 0.065275 0.217559 0.000475 0.000006 -0.000008 0.000000 0.000000 0.000000 0.000000 0.000000 0.000000 -93.560539 -1.257945 8.501931 -42.592377 -13.074550 25.268631 -7.411368 -32.241798 77.216301 -18.779840 -63.436157 12.438937 -9.386461 1.718170 40.430801 -0.000001 -0.000002 -23.561979 -0.000245 -0.000046 -16.118748 -0.000980 0.000011 -0.002866 -15.242937 -0.047847 -14.893387 -9.735366 -0.017177 0.157157 -9.658755 -0.004866 0.102769 0.000014 -0.000992 -0.000007 -17.071754 -0.008929 -14.220580 -10.597430 -0.016945 0.049074 -10.278386 0.003977 0.031887 -0.000648 -0.000013 0.000060 -22.687166 -0.020326 -10.869254 -13.972726 0.000615 -0.147141 -13.692903 -0.006534 -0.101588 0.003439 0.000015 -0.000014 -25.680449 -0.240026 -8.555062 -15.937224 0.020817 -0.509668 -15.741760 -0.014708 -0.318949 0.000381 0.000013 -0.000027 0.000000 0.000000 0.000000 0.000000 0.000000 0.000000 10.610641 -10.928140 13.727583 -0.016776 -0.100951 12.242887 -10.624935 -16.421926 16.155638 0.205643 -0.860541 -27.648726 0.000000 0.000000 0.000000 0.000000 0.000000 0.000000 0.000000 0.000000 0.000000 22.173548 7.352738 8.056356 0.577626 1.195935 27.211563 -8.466451 5.968713 14.044988 0.772470 1.140462 -29.123337 0.000000 0.000000 0.000000 0.000000 0.000000 0.000000 0.000000 0.000000 0.000000 
-8.388698 85.615410 8.137749 -6.140175 -13.562076 -12.955103 4.446061 -0.924391 7.536811 0.265670 -0.354915 3.685325 6.068414 -6.359996 11.751717 -1.411215 -1.145084 -0.838806 -0.087661 8.796876 15.323431 -3.758165 6.478847 -5.097147 -1.730133 3.591397 -26.317471 0.000000 0.000000 0.000000 92.775627 0.220034 6.178493 40.722881 9.959115 10.095069 4.104222 31.415781 73.183983 -12.819355 76.596237 -9.664017 10.457870 -1.844859 39.977379 -0.000001 0.000013 -25.342260 0.000018 0.000036 -17.443678 0.000001 0.000014 -0.000010 12.175746 0.081798 -2.697425 8.740121 -0.051650 -0.001666 8.822376 -0.039931 0.039341 -0.000030 0.000023 -0.000005 13.703669 0.035279 -3.911346 8.796403 -0.021954 0.013095 9.136487 -0.002299 0.019636 -0.000004 0.000068 -0.000020 15.755610 -0.026894 -5.712101 9.908100 0.073352 0.050528 9.977653 0.038616 0.049130 -0.000004 0.000004 -0.000004 16.277422 -0.090738 -8.729484 10.172524 0.156145 0.206122 10.090888 0.065989 0.204323 0.000477 0.000006 -0.000008 0.000000 0.000000 0.000000 0.000000 0.000000 0.000000 -93.648933 -1.260005 8.493311 -42.990440 -13.190552 25.049921 -7.362051 -32.250393 77.725830 -19.045568 -63.387760 12.933546 -9.407900 1.723196 40.418495 -0.000002 -0.000002 -23.609861 -0.000243 -0.000047 -16.164013 -0.000899 0.000012 -0.002856 -15.366849 -0.049169 -14.879276 -9.726135 -0.018365 0.149487 -9.656526 -0.006118 0.093903 0.000014 -0.001008 -0.000008 -17.226282 -0.009442 -14.197525 -10.597898 -0.017069 0.045664 -10.286021 0.003716 0.028653 -0.000593 -0.000014 0.000059 -22.865530 -0.019646 -10.864280 -13.998024 0.000827 -0.142614 -13.709357 -0.005773 -0.097259 0.003457 0.000015 -0.000014 -25.840710 -0.236907 -8.573488 -15.960172 0.022796 -0.487695 -15.772125 -0.011882 -0.302469 0.000430 0.000013 -0.000027 0.000000 0.000000 0.000000 0.000000 0.000000 0.000000 10.648600 -10.931039 13.736559 -0.016839 -0.107353 12.299545 -10.660878 -16.418821 16.091179 0.207096 -0.853184 -27.658188 0.000000 0.000000 0.000000 0.000000 0.000000 0.000000 0.000000 0.000000 0.000000 22.231085 7.343334 8.049007 0.581349 1.197605 27.347189 -8.480200 5.997425 14.038462 0.769623 1.137086 -29.148190 0.000000 0.000000 0.000000 0.000000 0.000000 0.000000 0.000000 0.000000 0.000000 
-8.421815 85.608788 8.147120 -6.155254 -13.664145 -12.989095 4.437033 -0.922845 7.566403 0.342336 -0.378747 3.696653 6.019273 -6.299344 11.766721 -1.410442 -1.136454 -0.857860 -0.126862 8.856994 15.261094 -3.790257 6.479346 -5.141408 -1.741109 3.605187 -26.341152 0.000000 0.000000 0.000000 92.854362 0.207829 6.209353 40.594913 9.731588 10.024683 4.100924 31.274731 73.716835 -11.186832 76.652710 -8.255522 10.474232 -1.849068 39.966564 -0.000000 0.000013 -25.390656 0.000018 0.000036 -17.469574 0.000001 0.000014 -0.000009 12.302999 0.080884 -2.790058 8.738943 -0.054468 0.008772 8.818279 -0.042336 0.051432 -0.000030 0.000023 -0.000005 13.791666 0.034971 -4.023178 8.793407 -0.022885 0.017979 9.134961 -0.003285 0.022996 -0.000004 0.000073 -0.000020 15.861080 -0.026247 -5.865565 9.923489 0.074809 0.042351 9.987928 0.040297 0.042072 -0.000004 -0.000038 -0.000004 16.451815 -0.084543 -8.903075 10.209247 0.157929 0.183831 10.118029 0.069622 0.185933 0.000466 0.000006 -0.000009 0.000000 0.000000 0.000000 0.000000 0.000000 0.000000 -93.746208 -1.255011 8.469432 -43.344349 -13.329150 24.825792 -7.295499 -32.210773 78.349655 -19.268694 -63.192703 13.416717 -9.422770 1.727613 40.409801 -0.000001 -0.000002 -23.637760 -0.000239 -0.000047 -16.197325 -0.000802 0.000012 -0.002832 -15.440779 -0.051079 -14.837606 -9.677737 -0.020306 0.139315 -9.614122 -0.008216 0.082592 0.000015 -0.001021 -0.000008 -17.325438 -0.010168 -14.153873 -10.554278 -0.017481 0.041230 -10.249354 0.003187 0.024511 -0.000545 -0.000014 0.000061 -22.972599 -0.018621 -10.855840 -13.963147 0.001545 -0.137114 -13.665954 -0.004642 -0.091897 0.003467 0.000016 -0.000014 -25.914791 -0.232297 -8.601507 -15.913076 0.026013 -0.461990 -15.735806 -0.007892 -0.282980 0.000471 0.000013 -0.000027 0.000000 0.000000 0.000000 0.000000 0.000000 0.000000 10.685256 -10.945972 13.749459 -0.017445 -0.115677 12.361814 -10.689399 -16.425676 16.014681 0.208910 -0.843220 -27.662947 0.000000 0.000000 0.000000 0.000000 0.000000 0.000000 0.000000 0.000000 0.000000 22.282055 7.315259 8.031417 0.585331 1.198374 27.486931 -8.488517 6.032907 14.038331 0.765669 1.133169 -29.174587 0.000000 0.000000 0.000000 0.000000 0.000000 0.000000 0.000000 0.000000 0.000000 
